<?xml version="1.0" encoding="utf-8"?>
<!-- Generator: Adobe Illustrator 16.0.0, SVG Export Plug-In . SVG Version: 6.00 Build 0)  -->
<!DOCTYPE svg PUBLIC "-//W3C//DTD SVG 1.1//EN" "http://www.w3.org/Graphics/SVG/1.1/DTD/svg11.dtd">
<svg version="1.1" id="Layer_1" xmlns="http://www.w3.org/2000/svg" xmlns:xlink="http://www.w3.org/1999/xlink" x="0px" y="0px"
	 width="201.007px" height="201.006px" viewBox="0 0 201.007 201.006" enable-background="new 0 0 201.007 201.006"
	 xml:space="preserve">
<g>
	<defs>
		<rect id="SVGID_1_" x="-3.012" y="-1.99" width="205" height="205"/>
	</defs>
	<clipPath id="SVGID_2_">
		<use xlink:href="#SVGID_1_"  overflow="visible"/>
	</clipPath>
	<rect x="0.488" y="0.51" clip-path="url(#SVGID_2_)" fill="#F9F9FA" width="200" height="200"/>
	
		<rect x="0.488" y="0.51" clip-path="url(#SVGID_2_)" fill="none" stroke="#E6E6E5" stroke-linecap="round" stroke-linejoin="round" stroke-miterlimit="10" width="200" height="200"/>
	<path clip-path="url(#SVGID_2_)" fill="#D1D2D2" d="M138.481,71.602c1,1,1.857,2.357,2.572,4.071
		c0.713,1.714,1.07,3.286,1.07,4.714v61.714c0,1.428-0.5,2.643-1.5,3.643s-2.215,1.5-3.643,1.5h-72c-1.429,0-2.644-0.5-3.643-1.5
		c-1-1-1.5-2.215-1.5-3.643V56.388c0-1.428,0.5-2.643,1.5-3.643c0.999-0.999,2.214-1.5,3.643-1.5h48c1.428,0,3,0.357,4.715,1.072
		c1.713,0.715,3.07,1.572,4.07,2.571L138.481,71.602z M135.266,140.388V85.531h-22.285c-1.43,0-2.643-0.5-3.643-1.5
		c-1-1-1.5-2.214-1.5-3.643V58.102H66.695v82.286H135.266z M116.891,59.709c-0.428-0.428-1.16-0.821-2.195-1.178v20.143h20.143
		c-0.357-1.035-0.75-1.768-1.18-2.196L116.891,59.709L116.891,59.709z"/>
</g>
<g>
	<defs>
		<rect id="SVGID_3_" x="-3.012" y="-1.99" width="205" height="205"/>
	</defs>
	<clipPath id="SVGID_4_">
		<use xlink:href="#SVGID_3_"  overflow="visible"/>
	</clipPath>
	<rect x="0.488" y="0.51" clip-path="url(#SVGID_4_)" fill="#F9F9FA" width="200" height="200"/>
	
		<rect x="0.488" y="0.51" clip-path="url(#SVGID_4_)" fill="none" stroke="#E6E6E5" stroke-linecap="round" stroke-linejoin="round" stroke-miterlimit="10" width="200" height="200"/>
	<path clip-path="url(#SVGID_4_)" fill="#D1D2D2" d="M138.481,71.602c1,1,1.857,2.357,2.572,4.071
		c0.713,1.714,1.07,3.286,1.07,4.714v61.714c0,1.428-0.5,2.643-1.5,3.643s-2.215,1.5-3.643,1.5h-72c-1.429,0-2.644-0.5-3.643-1.5
		c-1-1-1.5-2.215-1.5-3.643V56.388c0-1.428,0.5-2.643,1.5-3.643c0.999-0.999,2.214-1.5,3.643-1.5h48c1.428,0,3,0.357,4.715,1.072
		c1.713,0.715,3.07,1.572,4.07,2.571L138.481,71.602z M135.266,140.388V85.531h-22.285c-1.43,0-2.643-0.5-3.643-1.5
		c-1-1-1.5-2.214-1.5-3.643V58.102H66.695v82.286H135.266z M116.891,59.709c-0.428-0.428-1.16-0.821-2.195-1.178v20.143h20.143
		c-0.357-1.035-0.75-1.768-1.18-2.196L116.891,59.709L116.891,59.709z"/>
</g>
<g>
</g>
<g>
</g>
<g>
</g>
<g>
</g>
<g>
</g>
<g>
</g>
</svg>
