<?xml version="1.0" encoding="utf-8"?>
<!-- Generator: Adobe Illustrator 16.0.0, SVG Export Plug-In . SVG Version: 6.00 Build 0)  -->
<!DOCTYPE svg PUBLIC "-//W3C//DTD SVG 1.1//EN" "http://www.w3.org/Graphics/SVG/1.1/DTD/svg11.dtd">
<svg version="1.1" id="Layer_1" xmlns="http://www.w3.org/2000/svg" xmlns:xlink="http://www.w3.org/1999/xlink" x="0px" y="0px"
	 width="201px" height="201px" viewBox="0 0 201 201" enable-background="new 0 0 201 201" xml:space="preserve">
<g>
	<defs>
		<rect id="SVGID_1_" x="-3" y="-2" width="205" height="205"/>
	</defs>
	<clipPath id="SVGID_2_">
		<use xlink:href="#SVGID_1_"  overflow="visible"/>
	</clipPath>
	<rect x="0.5" y="0.5" clip-path="url(#SVGID_2_)" fill="#F9F9FA" width="200" height="200"/>
	
		<rect x="0.5" y="0.5" clip-path="url(#SVGID_2_)" fill="none" stroke="#E6E6E5" stroke-linecap="round" stroke-linejoin="round" stroke-miterlimit="10" width="200" height="200"/>
	<path clip-path="url(#SVGID_2_)" fill="#D1D2D2" d="M138.5,71.6c1,1,1.9,2.4,2.6,4.1c0.7,1.7,1.1,3.3,1.1,4.7v61.7
		c0,1.4-0.5,2.6-1.5,3.6s-2.2,1.5-3.6,1.5H65c-1.4,0-2.6-0.5-3.6-1.5c-1-1-1.5-2.2-1.5-3.6V56.4c0-1.4,0.5-2.6,1.5-3.6
		c1-1,2.2-1.5,3.6-1.5h48c1.4,0,3,0.4,4.7,1.1c1.7,0.7,3.1,1.6,4.1,2.6L138.5,71.6z M135.3,140.4V85.5H113c-1.4,0-2.6-0.5-3.6-1.5
		c-1-1-1.5-2.2-1.5-3.6V58.1H66.7v82.3H135.3z M116.9,59.7c-0.4-0.4-1.2-0.8-2.2-1.2v20.1h20.1c-0.4-1-0.8-1.8-1.2-2.2L116.9,59.7
		L116.9,59.7z"/>
</g>
<g>
</g>
<g>
</g>
<g>
</g>
<g>
</g>
<g>
</g>
<g>
</g>
<g>
</g>
<g>
</g>
<g>
</g>
<g>
</g>
<g>
</g>
<g>
</g>
<g>
</g>
</svg>
